<svg id="Layer_1" data-name="Layer 1" xmlns="http://www.w3.org/2000/svg" viewBox="0 0 512 512"><defs><style>.cls-1{fill:#c1d5e0;}.cls-2{fill:#8e24aa;}</style></defs><title>LogoSVG</title><polygon class="cls-1" points="251.85 174.8 256 177.82 260.15 174.8 318.69 132.27 331.42 93.09 338.19 72.26 256 131.98 173.81 72.26 193.3 132.27 251.85 174.8"/><polygon class="cls-1" points="123.09 274.38 161.67 246.35 149.62 209.27 26.54 298.69 8.95 311.46 30.7 311.46 182.82 311.46 170.78 274.38 123.09 274.38"/><polygon class="cls-1" points="485.46 298.69 362.38 209.27 350.33 246.35 388.91 274.38 341.23 274.38 329.18 311.46 481.31 311.46 503.05 311.46 485.46 298.69"/><polygon class="cls-2" points="350.36 200.53 401.96 41.72 408.68 21.05 391.09 33.83 377.08 44 359.5 56.78 357.64 58.13 356.93 60.31 344.86 97.46 338.14 118.14 283.21 287.19 256 370.94 256 370.94 155.07 60.31 154.36 58.13 152.5 56.78 134.92 44 120.91 33.83 103.32 21.05 110.03 41.72 161.64 200.53 173.69 237.62 185.63 274.38 197.68 311.46 249.28 470.28 256 490.95 262.72 470.28 314.32 311.46 326.37 274.38 338.31 237.62 350.36 200.53"/></svg>